<mxfile host="app.diagrams.net" modified="2022-11-13T11:40:00.288Z" agent="5.0 (Macintosh; Intel Mac OS X 10_15_7) AppleWebKit/537.36 (KHTML, like Gecko) Chrome/107.0.0.0 Safari/537.36" etag="Lx-ZAqrBrkHhBQfTtJIR" version="20.5.3" type="github">
  <diagram id="WEpWaRFhFdngrRwKB8yX" name="Page-1">
    <mxGraphModel dx="1186" dy="707" grid="1" gridSize="10" guides="1" tooltips="1" connect="1" arrows="1" fold="1" page="1" pageScale="1" pageWidth="850" pageHeight="1100" math="0" shadow="0">
      <root>
        <mxCell id="0" />
        <mxCell id="1" parent="0" />
        <mxCell id="NPAHf6GLUfY3THggXL0j-18" value="" style="edgeStyle=orthogonalEdgeStyle;rounded=0;orthogonalLoop=1;jettySize=auto;html=1;fontSize=22;" edge="1" parent="1" source="NPAHf6GLUfY3THggXL0j-1" target="NPAHf6GLUfY3THggXL0j-17">
          <mxGeometry relative="1" as="geometry" />
        </mxCell>
        <mxCell id="NPAHf6GLUfY3THggXL0j-1" value="Abertura da solicitação do entregador" style="ellipse;whiteSpace=wrap;html=1;aspect=fixed;" vertex="1" parent="1">
          <mxGeometry x="30" y="160" width="80" height="80" as="geometry" />
        </mxCell>
        <mxCell id="NPAHf6GLUfY3THggXL0j-2" value="Logística" style="text;html=1;strokeColor=none;fillColor=none;align=center;verticalAlign=middle;whiteSpace=wrap;rounded=0;fontSize=22;" vertex="1" parent="1">
          <mxGeometry x="317.5" y="80" width="170" height="30" as="geometry" />
        </mxCell>
        <mxCell id="NPAHf6GLUfY3THggXL0j-6" value="" style="edgeStyle=orthogonalEdgeStyle;rounded=0;orthogonalLoop=1;jettySize=auto;html=1;fontSize=22;" edge="1" parent="1" source="NPAHf6GLUfY3THggXL0j-3" target="NPAHf6GLUfY3THggXL0j-5">
          <mxGeometry relative="1" as="geometry" />
        </mxCell>
        <mxCell id="NPAHf6GLUfY3THggXL0j-3" value="envio de push notification para o entregador" style="shape=process;whiteSpace=wrap;html=1;backgroundOutline=1;" vertex="1" parent="1">
          <mxGeometry x="625" y="170" width="120" height="60" as="geometry" />
        </mxCell>
        <mxCell id="NPAHf6GLUfY3THggXL0j-10" value="" style="edgeStyle=orthogonalEdgeStyle;rounded=0;orthogonalLoop=1;jettySize=auto;html=1;fontSize=22;" edge="1" parent="1" source="NPAHf6GLUfY3THggXL0j-5" target="NPAHf6GLUfY3THggXL0j-9">
          <mxGeometry relative="1" as="geometry" />
        </mxCell>
        <mxCell id="NPAHf6GLUfY3THggXL0j-5" value="entregador&amp;nbsp; coleta o pacote junto ao comerciante" style="whiteSpace=wrap;html=1;" vertex="1" parent="1">
          <mxGeometry x="625" y="260" width="120" height="60" as="geometry" />
        </mxCell>
        <mxCell id="NPAHf6GLUfY3THggXL0j-12" value="" style="edgeStyle=orthogonalEdgeStyle;rounded=0;orthogonalLoop=1;jettySize=auto;html=1;fontSize=22;" edge="1" parent="1" source="NPAHf6GLUfY3THggXL0j-9" target="NPAHf6GLUfY3THggXL0j-11">
          <mxGeometry relative="1" as="geometry" />
        </mxCell>
        <mxCell id="NPAHf6GLUfY3THggXL0j-9" value="Destinatário recebe push notification informando que o entregador está á caminho" style="shape=process;whiteSpace=wrap;html=1;backgroundOutline=1;" vertex="1" parent="1">
          <mxGeometry x="350" y="260" width="190" height="60" as="geometry" />
        </mxCell>
        <mxCell id="NPAHf6GLUfY3THggXL0j-14" value="" style="edgeStyle=orthogonalEdgeStyle;rounded=0;orthogonalLoop=1;jettySize=auto;html=1;fontSize=22;" edge="1" parent="1" source="NPAHf6GLUfY3THggXL0j-11" target="NPAHf6GLUfY3THggXL0j-13">
          <mxGeometry relative="1" as="geometry" />
        </mxCell>
        <mxCell id="NPAHf6GLUfY3THggXL0j-11" value="O pacote é entregue e o entregador tira uma foto da entrega realizada" style="whiteSpace=wrap;html=1;" vertex="1" parent="1">
          <mxGeometry x="142.5" y="260" width="175" height="60" as="geometry" />
        </mxCell>
        <mxCell id="NPAHf6GLUfY3THggXL0j-16" value="" style="edgeStyle=orthogonalEdgeStyle;rounded=0;orthogonalLoop=1;jettySize=auto;html=1;fontSize=22;" edge="1" parent="1" source="NPAHf6GLUfY3THggXL0j-13" target="NPAHf6GLUfY3THggXL0j-15">
          <mxGeometry relative="1" as="geometry" />
        </mxCell>
        <mxCell id="NPAHf6GLUfY3THggXL0j-13" value="A plataforma reliza o pix para o entregador" style="whiteSpace=wrap;html=1;" vertex="1" parent="1">
          <mxGeometry x="20" y="360" width="120" height="60" as="geometry" />
        </mxCell>
        <mxCell id="NPAHf6GLUfY3THggXL0j-15" value="fim da entrega" style="ellipse;whiteSpace=wrap;html=1;" vertex="1" parent="1">
          <mxGeometry x="197.5" y="360" width="120" height="60" as="geometry" />
        </mxCell>
        <mxCell id="NPAHf6GLUfY3THggXL0j-21" value="" style="edgeStyle=orthogonalEdgeStyle;rounded=0;orthogonalLoop=1;jettySize=auto;html=1;fontSize=22;" edge="1" parent="1" source="NPAHf6GLUfY3THggXL0j-17" target="NPAHf6GLUfY3THggXL0j-20">
          <mxGeometry relative="1" as="geometry" />
        </mxCell>
        <mxCell id="NPAHf6GLUfY3THggXL0j-17" value="Comerciante preenche o formulário de solicitação do entregador" style="whiteSpace=wrap;html=1;" vertex="1" parent="1">
          <mxGeometry x="160" y="170" width="140" height="60" as="geometry" />
        </mxCell>
        <mxCell id="NPAHf6GLUfY3THggXL0j-22" style="edgeStyle=orthogonalEdgeStyle;rounded=0;orthogonalLoop=1;jettySize=auto;html=1;fontSize=22;" edge="1" parent="1" source="NPAHf6GLUfY3THggXL0j-20">
          <mxGeometry relative="1" as="geometry">
            <mxPoint x="620" y="200" as="targetPoint" />
          </mxGeometry>
        </mxCell>
        <mxCell id="NPAHf6GLUfY3THggXL0j-20" value="Comerciante realiza o pagamento do serviço via pix" style="whiteSpace=wrap;html=1;" vertex="1" parent="1">
          <mxGeometry x="390" y="170" width="120" height="60" as="geometry" />
        </mxCell>
      </root>
    </mxGraphModel>
  </diagram>
</mxfile>
